Coordinates
version=1
nRows=6
nColumns=107
inDegrees=yes

Units are S.I. units (second, meters, Newtons, ...)
If the header above contains a line with 'inDegrees', this indicates whether rotational values are in degrees (yes) or radians (no).

endheader
time	sternoclavicular_r2	sternoclavicular_r3	unrotscap_r3	unrotscap_r2	acromioclavicular_r2	acromioclavicular_r3	acromioclavicular_r1	unrothum_r1	unrothum_r3	unrothum_r2	elv_angle	shoulder_elv	shoulder1_r2	shoulder_rot	elbow_flexion	pro_sup	deviation	flexion	proximal_distal_r1	proximal_distal_r3	cmc_flexion	cmc_abduction	mp_flexion	ip_flexion	mcp2_flexion	mcp2_abduction	pm2_flexion	md2_flexion	mcp3_flexion	mcp3_abduction	pm3_flexion	md3_flexion	mcp4_flexion	mcp4_abduction	pm4_flexion	md4_flexion	mcp5_flexion	mcp5_abduction	pm5_flexion	md5_flexion	bicpt_tx	bicpt_ty	bicpt_tz	bicpt2_tx	bicpt2_ty	bicpt2_tz	ptpt_tx	ptpt_ty	ptpt_tz	FCUpt_tx	FCUpt_ty	FCUpt_tz	EDCpt_tx	EDCpt_ty	EDCpt_tz	APLpt_tx	APLpt_ty	APLpt_tz	FPLpt_tx	FPLpt_ty	FPLpt_tz	FPLpt2_tx	FPLpt2_ty	FPLpt2_tz	PEC1pt2_tx	PEC1pt2_ty	PEC1pt2_tz	PEC1pt3_tx	PEC1pt3_ty	PEC1pt3_tz	PEC2pt2_tx	PEC2pt2_ty	PEC2pt2_tz	PEC2pt3_tx	PEC2pt3_ty	PEC2pt3_tz	PEC3pt2_tx	PEC3pt2_ty	PEC3pt2_tz	PEC3pt3_tx	PEC3pt3_ty	PEC3pt3_tz	DELT2pt2a_tx	DELT2pt2a_ty	DELT2pt2a_tz	DELT2pt2_tx	DELT2pt2_ty	DELT2pt2_tz	LAT1pt2_tx	LAT1pt2_ty	LAT1pt2_tz	LAT1pt3_tx	LAT1pt3_ty	LAT1pt3_tz	LAT2pt2_tx	LAT2pt2_ty	LAT2pt2_tz	LAT2pt3_tx	LAT2pt3_ty	LAT2pt3_tz	LAT3pt2_tx	LAT3pt2_ty	LAT3pt2_tz	LAT3pt3_tx	LAT3pt3_ty	LAT3pt3_tz
      0.00000000	     -0.32393051	      0.13720168	     -0.13720168	      0.32393051	     -0.06558934	      0.53006997	      0.23826280	     -0.23826280	     -0.53006997	      0.06558934	     98.76715551	     76.69342857	     -1.72381206	    -19.37279720	     27.92240505	     13.28495450	     -0.01449442	     -0.87089787	     -0.01984291	     -0.43544894	     -6.72366664	    -11.88986273	    -30.83467142	    -39.38216218	      6.73543876	     11.52117714	     13.12726944	    -19.56595631	     35.41715012	     10.65414045	     85.85812176	     69.52374606	     20.60631875	     -0.13688129	     89.54510672	     49.54766641	     -4.12474717	    -11.45796796	     -1.50939886	      4.99514635	      0.00082359	     -0.03080033	     -0.00481549	      0.01570812	     -0.01778526	     -0.00982157	      0.00656839	     -0.06553472	     -0.00112017	      0.00520074	     -0.18394947	      0.00007196	     -0.00159419	      0.00040364	      0.00014481	      0.00025588	      0.00010235	      0.00051175	      0.00032752	      0.00098257	      0.00055269	     -0.00061666	      0.00019321	      0.00023185	      0.00251384	      0.00881975	      0.00613548	     -0.00822325	      0.01985509	     -0.01883251	      0.00251384	      0.00881975	      0.00613548	      0.00055390	      0.01840644	     -0.00967190	      0.00396782	      0.00490455	      0.01601603	      0.00000000	      0.00786698	      0.00000000	     -0.00720067	     -0.03327645	     -0.00648717	      0.01341170	     -0.00041275	     -0.00308357	     -0.00089476	      0.01499784	     -0.00613548	      0.00247123	      0.02164461	     -0.01789515	     -0.00600766	      0.01299529	     -0.00549637	     -0.01252660	      0.02743923	     -0.03072000	     -0.02351934	      0.01452916	     -0.00737110	     -0.01559434	      0.03169998	     -0.03838935
      0.03333333	     -0.32200715	      0.13638703	     -0.13638703	      0.32200715	     -0.06519990	      0.52692265	      0.23684810	     -0.23684810	     -0.52692265	      0.06519990	     99.21855544	     76.23805610	     -1.73169047	    -21.61032975	     27.89210315	     14.82624153	     -0.03603137	     -0.89972373	     -0.04996134	     -0.44986186	     -6.81706511	    -10.89915102	    -30.68207089	    -39.62725744	      7.60756699	     11.46114290	     13.07555786	    -19.30664281	     36.46722270	     10.46424151	     85.58593407	     70.74797723	     21.53633796	     -0.66562963	     88.83142936	     48.47119228	     -4.48964410	    -11.53059961	     -1.42011005	      5.01246424	      0.00082258	     -0.03079686	     -0.00481493	      0.01580249	     -0.01777703	     -0.00971310	      0.00645451	     -0.06560836	     -0.00124433	      0.00534357	     -0.18392877	      0.00003091	     -0.00177914	      0.00045400	      0.00015541	      0.00024262	      0.00009705	      0.00048525	      0.00031056	      0.00093167	      0.00052407	     -0.00063267	      0.00019624	      0.00023549	      0.00249892	      0.00876738	      0.00609905	     -0.00817442	      0.01973720	     -0.01872069	      0.00249892	      0.00876738	      0.00609905	      0.00055061	      0.01829715	     -0.00961447	      0.00395063	      0.00487543	      0.01597421	      0.00000000	      0.00777318	      0.00000000	     -0.00715791	     -0.03307887	     -0.00640931	      0.01468818	     -0.00048190	     -0.00387740	     -0.00088944	      0.01490879	     -0.00609905	      0.00245656	      0.02151609	     -0.01778889	     -0.00597199	      0.01291813	     -0.00546373	     -0.01245223	      0.02727631	     -0.03053760	     -0.02337969	      0.01444289	     -0.00732733	     -0.01550175	      0.03151176	     -0.03816141
      0.06666667	     -0.32197086	      0.13637166	     -0.13637166	      0.32197086	     -0.06519255	      0.52686326	      0.23682141	     -0.23682141	     -0.52686326	      0.06519255	     99.24513488	     76.22946328	     -1.73215437	    -21.59918888	     27.90950269	     14.82877398	     -0.03606309	     -0.89970998	     -0.05000720	     -0.44985499	     -6.81615793	    -10.89840430	    -30.68150057	    -39.62706368	      7.60859971	     11.46142972	     13.07576189	    -19.30640730	     36.46895172	     10.46449460	     85.58632375	     70.74799318	     21.53808734	     -0.66563764	     88.83087118	     48.47093000	     -4.49024608	    -11.53040817	     -1.42023869	      5.01241396	      0.00082316	     -0.03079886	     -0.00481525	      0.01580263	     -0.01778175	     -0.00971292	      0.00645432	     -0.06560848	     -0.00124454	      0.00534381	     -0.18392873	      0.00003084	     -0.00177945	      0.00045408	      0.00015543	      0.00024263	      0.00009705	      0.00048526	      0.00031057	      0.00093170	      0.00052408	     -0.00063251	      0.00019622	      0.00023546	      0.00249863	      0.00876640	      0.00609836	     -0.00817350	      0.01973498	     -0.01871858	      0.00249863	      0.00876640	      0.00609836	      0.00055055	      0.01829509	     -0.00961339	      0.00395030	      0.00487488	      0.01597342	      0.00000000	      0.00777141	      0.00000000	     -0.00715711	     -0.03307515	     -0.00640784	      0.01468197	     -0.00048155	     -0.00387328	     -0.00088934	      0.01490711	     -0.00609836	      0.00245628	      0.02151367	     -0.01778689	     -0.00597131	      0.01291667	     -0.00546312	     -0.01245082	      0.02727323	     -0.03053416	     -0.02337706	      0.01444126	     -0.00732650	     -0.01550000	      0.03150820	     -0.03815711
      0.10000000	     -0.32133854	      0.13610384	     -0.13610384	      0.32133854	     -0.06506452	      0.52582854	      0.23635631	     -0.23635631	     -0.52582854	      0.06506452	     99.32248793	     76.07975549	     -1.73350444	    -22.43176800	     28.08345942	     15.76186568	     -0.03888837	     -0.88951233	     -0.05401459	     -0.44475617	     -6.79256646	    -10.01907735	    -29.94996121	    -38.94335605	      7.51209816	     11.52718264	     13.77376177	    -19.46535762	     37.00138629	     10.64896214	     85.82406055	     70.32476204	     22.52481246	     -0.82136943	     87.34611237	     47.43226260	     -4.62451031	    -11.50390299	     -1.82442499	      5.02916408	      0.00082891	     -0.03081879	     -0.00481846	      0.01585713	     -0.01782901	     -0.00964564	      0.00638538	     -0.06565307	     -0.00131970	      0.00543063	     -0.18391587	      0.00000685	     -0.00189142	      0.00048492	      0.00016123	      0.00024748	      0.00009899	      0.00049497	      0.00031678	      0.00095033	      0.00053456	     -0.00062842	      0.00019545	      0.00023454	      0.00249373	      0.00874918	      0.00608639	     -0.00815745	      0.01969622	     -0.01868182	      0.00249373	      0.00874918	      0.00608639	      0.00054947	      0.01825916	     -0.00959451	      0.00394464	      0.00486531	      0.01595956	      0.00000000	      0.00774071	      0.00000000	     -0.00714305	     -0.03301019	     -0.00638235	      0.01513997	     -0.00050777	     -0.00418819	     -0.00088760	      0.01487783	     -0.00608639	      0.00245146	      0.02147142	     -0.01775196	     -0.00595959	      0.01289130	     -0.00545239	     -0.01242637	      0.02721967	     -0.03047419	     -0.02333114	      0.01441290	     -0.00731212	     -0.01546956	      0.03144633	     -0.03808218
      0.13333333	     -0.32127886	      0.13607856	     -0.13607856	      0.32127886	     -0.06505243	      0.52573090	      0.23631242	     -0.23631242	     -0.52573090	      0.06505243	     99.33726970	     76.06562703	     -1.73376243	    -22.42335087	     28.09147665	     15.76367465	     -0.03891392	     -0.88949793	     -0.05405113	     -0.44474896	     -6.79233312	    -10.01856887	    -29.94989505	    -38.94338831	      7.51313776	     11.52752374	     13.77382373	    -19.46508765	     37.00246475	     10.64886494	     85.82400038	     70.32481449	     22.52630996	     -0.82145300	     87.34608670	     47.43212599	     -4.62404027	    -11.50364740	     -1.82418985	      5.02916055	      0.00082918	     -0.03081971	     -0.00481861	      0.01585722	     -0.01783119	     -0.00964550	      0.00638524	     -0.06565315	     -0.00131985	      0.00543080	     -0.18391584	      0.00000681	     -0.00189164	      0.00048498	      0.00016123	      0.00024748	      0.00009899	      0.00049497	      0.00031678	      0.00095034	      0.00053456	     -0.00062841	      0.00019544	      0.00023453	      0.00249326	      0.00874755	      0.00608526	     -0.00815593	      0.01969256	     -0.01867835	      0.00249326	      0.00874755	      0.00608526	      0.00054936	      0.01825577	     -0.00959273	      0.00394410	      0.00486440	      0.01595825	      0.00000000	      0.00773781	      0.00000000	     -0.00714172	     -0.03300406	     -0.00637995	      0.01513538	     -0.00050751	     -0.00418495	     -0.00088743	      0.01487507	     -0.00608526	      0.00245101	      0.02146743	     -0.01774866	     -0.00595848	      0.01288891	     -0.00545137	     -0.01242406	      0.02721461	     -0.03046854	     -0.02332681	      0.01441022	     -0.00731076	     -0.01546669	      0.03144049	     -0.03807510
      0.16666667	     -0.32044691	      0.13572619	     -0.13572619	      0.32044691	     -0.06488398	      0.52436952	      0.23570049	     -0.23570049	     -0.52436952	      0.06488398	     99.52668940	     75.86865544	     -1.73706842	    -23.49394041	     28.10798405	     16.70203805	     -0.04778625	     -0.89388110	     -0.06672154	     -0.44694055	     -6.82757615	     -9.47607758	    -29.73244900	    -39.05522642	      7.56237129	     11.54497312	     14.10448958	    -19.60468483	     37.41159291	     10.52241703	     85.71501760	     70.38553840	     23.14181359	     -1.05535004	     86.84844048	     46.86948207	     -4.56563034	    -11.48127240	     -2.09995668	      5.04413242	      0.00082972	     -0.03082160	     -0.00481892	      0.01590999	     -0.01783567	     -0.00957660	      0.00631591	     -0.06569798	     -0.00139544	      0.00551839	     -0.18390265	     -0.00001665	     -0.00200424	      0.00051627	      0.00016659	      0.00024542	      0.00009817	      0.00049084	      0.00031414	      0.00094242	      0.00053011	     -0.00063447	      0.00019659	      0.00023590	      0.00248681	      0.00872490	      0.00606950	     -0.00813481	      0.01964157	     -0.01862999	      0.00248681	      0.00872490	      0.00606950	      0.00054794	      0.01820849	     -0.00956789	      0.00393663	      0.00485181	      0.01593993	      0.00000000	      0.00769751	      0.00000000	     -0.00712323	     -0.03291859	     -0.00634649	      0.01571081	     -0.00054160	     -0.00460491	     -0.00088514	      0.01483655	     -0.00606950	      0.00244466	      0.02141184	     -0.01770270	     -0.00594305	      0.01285553	     -0.00543726	     -0.01239189	      0.02714414	     -0.03038964	     -0.02326641	      0.01437291	     -0.00729183	     -0.01542664	      0.03135907	     -0.03797651
